<svg width="28" height="29" viewBox="0 0 28 29" fill="none" xmlns="http://www.w3.org/2000/svg">
<g clip-path="url(#clip0_11031_1286)">
<path d="M14 0.716431C6.268 0.716431 0 6.98443 0 14.7164C0 22.4484 6.268 28.7164 14 28.7164C21.7319 28.7164 27.9999 22.4484 27.9999 14.7164C27.9917 6.98789 21.7285 0.724692 14 0.716431ZM14 26.7164C7.37255 26.7164 1.99998 21.3438 1.99998 14.7164C1.99998 8.08898 7.37255 2.71641 14 2.71641C20.6274 2.71641 26 8.08898 26 14.7164C25.9928 21.3409 20.6245 26.7092 14 26.7164Z" fill="white"/>
<path d="M21.683 9.00942C21.2954 8.63512 20.6811 8.63512 20.2936 9.00942L11.0006 18.3024L7.70754 15.0094C7.32387 14.6121 6.69077 14.6011 6.29356 14.9848C5.89629 15.3685 5.88534 16.0016 6.26901 16.3988C6.27704 16.4071 6.28524 16.4153 6.29356 16.4233L10.2936 20.4234C10.684 20.8138 11.3171 20.8138 11.7076 20.4234L21.7076 10.4233C22.0912 10.0261 22.0802 9.39309 21.683 9.00942Z" fill="white"/>
</g>
<defs>
<clipPath id="clip0_11031_1286">
<rect width="28" height="28" fill="white" transform="translate(0 0.716431)"/>
</clipPath>
</defs>
</svg>
