<svg width="29" height="29" viewBox="0 0 29 29" fill="none" xmlns="http://www.w3.org/2000/svg">
<g clip-path="url(#clip0_11031_1258)">
<path d="M14.2743 8.02319C10.5837 8.02319 7.58105 11.0259 7.58105 14.7164C7.58105 18.407 10.5837 21.4097 14.2743 21.4097C17.9648 21.4097 20.9675 18.407 20.9675 14.7164C20.9675 11.0259 17.9648 8.02319 14.2743 8.02319ZM14.2743 19.7364C11.5064 19.7364 9.25436 17.4843 9.25436 14.7164C9.25436 11.9485 11.5064 9.6965 14.2743 9.6965C17.0422 9.6965 19.2942 11.9485 19.2942 14.7164C19.2942 17.4843 17.0422 19.7364 14.2743 19.7364Z" fill="white"/>
<path d="M27.6156 11.5283L25.4636 11.0605C25.2764 10.4875 25.0446 9.92871 24.771 9.39038L25.9624 7.5372C26.1751 7.20609 26.1284 6.77136 25.8502 6.49323L22.4976 3.14062C22.2195 2.86249 21.7848 2.8157 21.4536 3.02847L19.6005 4.21985C19.0621 3.9462 18.5033 3.71442 17.9304 3.52728L17.4625 1.37524C17.379 0.990723 17.0385 0.716431 16.645 0.716431H11.9038C11.5103 0.716431 11.1698 0.990723 11.0863 1.37524L10.6185 3.52728C10.0455 3.71442 9.48669 3.9462 8.94836 4.21985L7.09518 3.02847C6.76407 2.8157 6.32935 2.86249 6.05121 3.14062L2.69861 6.49323C2.42047 6.77136 2.37369 7.20609 2.58646 7.5372L3.77783 9.39038C3.50418 9.92871 3.2724 10.4875 3.08527 11.0605L0.933228 11.5283C0.548706 11.6121 0.274414 11.9524 0.274414 12.3459V17.087C0.274414 17.4805 0.548706 17.8208 0.933228 17.9045L3.08527 18.3724C3.2724 18.9453 3.50418 19.5042 3.77783 20.0425L2.58646 21.8957C2.37369 22.2268 2.42047 22.6615 2.69861 22.9396L6.05121 26.2922C6.32935 26.5704 6.76407 26.6172 7.09518 26.4044L8.94836 25.213C9.48669 25.4867 10.0455 25.7184 10.6185 25.9056L11.0863 28.0576C11.1698 28.4421 11.5103 28.7164 11.9038 28.7164H16.645C17.0385 28.7164 17.379 28.4421 17.4625 28.0576L17.9304 25.9056C18.5033 25.7184 19.0621 25.4867 19.6005 25.213L21.4536 26.4044C21.7848 26.6172 22.2195 26.5706 22.4976 26.2922L25.8502 22.9396C26.1284 22.6615 26.1751 22.2268 25.9624 21.8957L24.771 20.0425C25.0446 19.5042 25.2764 18.9453 25.4636 18.3724L27.6156 17.9045C28.0001 17.8208 28.2744 17.4805 28.2744 17.087V12.3459C28.2744 11.9524 28.0001 11.6121 27.6156 11.5283ZM26.6011 16.4126L24.6279 16.8416C24.3247 16.9076 24.0829 17.1357 23.9996 17.4344C23.7828 18.2122 23.4709 18.9643 23.0727 19.6699C22.9202 19.9402 22.9296 20.2726 23.0975 20.5336L24.1902 22.2332L21.7914 24.6322L20.0916 23.5395C19.8305 23.3716 19.4981 23.3622 19.2281 23.5147C18.5223 23.9129 17.7701 24.2248 16.9923 24.4416C16.6937 24.5249 16.4655 24.7668 16.3995 25.0699L15.9706 27.0431H12.5782L12.1493 25.0699C12.0833 24.7668 11.8551 24.5249 11.5565 24.4416C10.7787 24.2248 10.0265 23.9129 9.32092 23.5147C9.05069 23.3622 8.71829 23.3718 8.45724 23.5395L6.75766 24.6322L4.35889 22.2332L5.45135 20.5336C5.61926 20.2726 5.62888 19.9402 5.47635 19.6699C5.07816 18.9643 4.76627 18.2122 4.54922 17.4344C4.46591 17.1357 4.2243 16.9076 3.92117 16.8416L1.94772 16.4126V13.0203L3.92096 12.5913C4.22409 12.5253 4.46591 12.2971 4.54922 11.9985C4.76605 11.2207 5.07794 10.4685 5.47614 9.76294C5.62866 9.49271 5.61926 9.16031 5.45135 8.89926L4.35867 7.19968L6.75745 4.80069L8.45724 5.89337C8.71829 6.06128 9.05069 6.07068 9.32071 5.91815C10.0265 5.51996 10.7787 5.20807 11.5565 4.99124C11.8551 4.90793 12.0833 4.66611 12.1493 4.36298L12.5782 2.38974H15.9706L16.3995 4.36298C16.4655 4.66611 16.6937 4.90793 16.9923 4.99124C17.7701 5.20807 18.5223 5.51996 19.2279 5.91815C19.4981 6.07068 19.8305 6.06107 20.0916 5.89337L21.7912 4.80069L24.1899 7.19968L23.0975 8.89926C22.9296 9.16031 22.92 9.49271 23.0725 9.76294C23.4709 10.4685 23.7826 11.2207 23.9996 11.9985C24.0829 12.2971 24.3245 12.5253 24.6277 12.5913L26.6011 13.0203V16.4126Z" fill="white"/>
</g>
<defs>
<clipPath id="clip0_11031_1258">
<rect width="28" height="28" fill="white" transform="translate(0.274414 0.716431)"/>
</clipPath>
</defs>
</svg>
