<svg width="32" height="33" viewBox="0 0 32 33" fill="none" xmlns="http://www.w3.org/2000/svg">
<path fill-rule="evenodd" clip-rule="evenodd" d="M22.8125 7.52148C25.5869 8.16528 26.6482 9.7876 27.9788 12.0205H22.8125V7.52148ZM6.59863 12.208C7.14185 12.208 7.53613 12.4702 7.53613 13.083C7.53613 13.5999 7.11792 14.019 6.60132 14.0205H0.9375C0.419678 14.0205 0 14.4404 0 14.958C0 15.4758 0.419678 15.8955 0.9375 15.8955H9.375C9.89771 15.8955 10.3162 16.3149 10.3162 16.833C10.3162 17.3508 9.89648 17.7705 9.37866 17.7705H0.9375C0.419678 17.7705 0 18.1902 0 18.708C0 19.2258 0.419678 19.6455 0.9375 19.6455H3V22.458C3 22.9758 3.41968 23.3955 3.9375 23.3955H5.82202C6.15796 25.0503 7.62012 26.2705 9.34375 26.2705C11.0674 26.2705 12.5295 25.0503 12.8655 23.3955H22.3845C22.7205 25.0503 24.1826 26.2705 25.9062 26.2705C27.6299 26.2705 29.092 25.0503 29.428 23.3955H31.0625C31.5803 23.3955 32 22.9758 32 22.458V16.833C32 14.0823 29.0986 13.8997 29.0959 13.8955H21.875C21.3572 13.8955 20.9375 13.4758 20.9375 12.958V7.33301H3.9375C3.41968 7.33301 3 7.75269 3 8.27051V10.333H1.875C1.35718 10.333 0.9375 10.7527 0.9375 11.2705C0.9375 11.7883 1.35718 12.208 1.875 12.208H6.59863ZM27.1216 21.4614C27.7927 22.1326 27.7927 23.2212 27.1216 23.8923C26.042 24.9719 24.1875 24.2039 24.1875 22.6768C24.1875 21.1499 26.042 20.3818 27.1216 21.4614ZM10.5591 21.4614C11.2302 22.1326 11.2302 23.2212 10.5591 23.8923C9.47949 24.9719 7.625 24.2039 7.625 22.6768C7.625 21.1499 9.47949 20.3818 10.5591 21.4614Z" fill="white"/>
</svg>
