<svg width="32" height="33" viewBox="0 0 32 33" fill="none" xmlns="http://www.w3.org/2000/svg">
<g clip-path="url(#clip0_11034_1499)">
<path d="M31.3711 18.266C31.3711 18.266 10.3495 9.85746 10.3077 9.84077C9.53345 9.53107 8.67923 10.3184 9.00785 11.141C9.00785 11.141 17.4165 32.1618 17.4336 32.2044C17.78 33.0705 19.0674 33.0022 19.3242 32.1073L21.9785 22.8124C21.9785 22.8124 31.2402 20.166 31.2743 20.1562C32.169 19.9006 32.234 18.6116 31.3711 18.266Z" fill="white"/>
<path d="M4.32422 3.74353C3.93359 3.3529 3.30078 3.3529 2.91016 3.74353C2.51954 4.13416 2.51953 4.76746 2.91016 5.15759L5.71875 7.9657C5.91397 8.16092 6.16967 8.25857 6.42541 8.25867C7.30026 8.259 7.75268 7.17075 7.13282 6.55164L4.32422 3.74353Z" fill="white"/>
<path d="M13.4473 8.25521C13.7045 8.25515 13.9616 8.15839 14.1543 7.9657L16.9629 5.15759C17.3535 4.76745 17.3535 4.13415 16.9629 3.74353C16.5723 3.35291 15.9395 3.3529 15.5488 3.74353C15.5488 3.74353 12.7534 6.5385 12.7403 6.55159C12.124 7.16774 12.583 8.25541 13.4473 8.25521Z" fill="white"/>
<path d="M5.71834 13.5731C5.71834 13.5731 2.92288 16.3681 2.90979 16.3812C2.29747 16.9934 2.75556 18.0883 3.61678 18.0883C3.87264 18.0883 4.1285 17.9906 4.32381 17.7953L7.1324 14.9872C7.52303 14.597 7.52303 13.9637 7.1324 13.5731C6.74177 13.1825 6.10897 13.1825 5.71834 13.5731Z" fill="white"/>
<path d="M5.56055 10.7694C5.56055 10.2172 5.11328 9.76941 4.56055 9.76941H1C0.44727 9.76941 0 10.2172 0 10.7694C0 11.3217 0.44727 11.7694 1 11.7694H4.56055C5.11328 11.7694 5.56055 11.3217 5.56055 10.7694Z" fill="white"/>
<path d="M9.93652 6.39344C10.4893 6.39344 10.9365 5.94569 10.9365 5.39344V1.83289C10.9365 1.28064 10.4893 0.832886 9.93652 0.832886C9.38379 0.832886 8.93652 1.28064 8.93652 1.83289V5.39344C8.93652 5.94568 9.38379 6.39344 9.93652 6.39344Z" fill="white"/>
</g>
<defs>
<clipPath id="clip0_11034_1499">
<rect width="32" height="32" fill="white" transform="translate(0 0.832886)"/>
</clipPath>
</defs>
</svg>
