<svg width="32" height="33" viewBox="0 0 32 33" fill="none" xmlns="http://www.w3.org/2000/svg">
<path d="M20.2857 27.5311C19.7414 27.7497 19.1789 27.9329 18.5971 28.0668L18.3614 31.1375C18.3314 31.5297 18.0036 31.8329 17.6104 31.8329H14.3886C13.9954 31.8329 13.6686 31.5297 13.6386 31.1386L13.4029 28.0679C12.1407 27.7775 10.9611 27.2793 9.895 26.6118L7.55393 28.6186C7.255 28.8747 6.81036 28.8575 6.53179 28.579L4.25393 26.3011C3.97536 26.0225 3.95929 25.5779 4.21429 25.279L6.22107 22.9379C5.55464 21.8718 5.05643 20.6922 4.765 19.43L1.69429 19.1943C1.30321 19.1643 1 18.8365 1 18.4432V15.2215C1 14.8282 1.30321 14.5015 1.69429 14.4715L4.765 14.2357C5.05536 12.9736 5.55357 11.794 6.22107 10.7279L4.21536 8.38681C3.95929 8.08896 3.97643 7.64324 4.25393 7.36574L6.53179 5.08789C6.80929 4.81039 7.255 4.79324 7.55393 5.04824L9.895 7.05503C10.9611 6.3886 12.1407 5.89039 13.4029 5.59896L13.6386 2.52824C13.6686 2.1361 13.9964 1.83289 14.3896 1.83289H17.6114C18.0046 1.83289 18.3314 2.1361 18.3614 2.52717L18.3754 2.7061C17.5439 3.98217 17.0714 5.48646 17.0714 7.07753C17.0714 8.36539 17.3757 9.59967 17.9318 10.7011C17.3221 10.5082 16.6729 10.4043 16 10.4043C12.4493 10.4043 9.57143 13.2822 9.57143 16.8329C9.57143 20.3836 12.4493 23.2615 16 23.2615C17.6489 23.2615 19.1479 22.6357 20.2857 21.6147V27.5311Z" fill="white"/>
<path d="M27.7853 12.3211V29.1543C27.7853 30.634 26.5864 31.8329 25.1067 31.8329C23.6271 31.8329 22.4282 30.634 22.4282 29.1543V12.3211C20.521 11.345 19.2139 9.3661 19.2139 7.07646C19.2139 4.86396 20.4353 2.93967 22.2396 1.93253C22.3221 1.88753 22.4282 1.95181 22.4282 2.0461V8.26146L25.1067 9.33288L27.7853 8.26146V2.0461C27.7853 1.95181 27.8914 1.88753 27.9739 1.9336C29.7782 2.94074 30.9996 4.86396 30.9996 7.07753C30.9996 9.3661 29.6924 11.3461 27.7853 12.3211Z" fill="white"/>
</svg>
