<svg width="22" height="23" viewBox="0 0 22 23" fill="none" xmlns="http://www.w3.org/2000/svg">
<path d="M1.8332 10.9162H17.9537L13.1018 6.0643C13.0142 5.97974 12.9444 5.87859 12.8964 5.76675C12.8483 5.65491 12.823 5.53463 12.822 5.41291C12.8209 5.2912 12.8441 5.17049 12.8902 5.05784C12.9363 4.94518 13.0044 4.84283 13.0904 4.75677C13.1765 4.6707 13.2788 4.60263 13.3915 4.55654C13.5042 4.51045 13.6249 4.48726 13.7466 4.48832C13.8683 4.48937 13.9886 4.51466 14.1004 4.5627C14.2122 4.61074 14.3134 4.68058 14.398 4.76813L20.8146 11.1848C20.9865 11.3567 21.083 11.5898 21.083 11.8329C21.083 12.0759 20.9865 12.3091 20.8146 12.481L14.398 18.8976C14.2251 19.0646 13.9935 19.157 13.7532 19.1549C13.5128 19.1528 13.2829 19.0564 13.113 18.8865C12.943 18.7165 12.8466 18.4866 12.8445 18.2462C12.8424 18.0059 12.9348 17.7743 13.1018 17.6015L17.9537 12.7495H1.8332C1.59009 12.7495 1.35693 12.653 1.18502 12.4811C1.01311 12.3092 0.916536 12.076 0.916536 11.8329C0.916536 11.5898 1.01311 11.3566 1.18502 11.1847C1.35693 11.0128 1.59009 10.9162 1.8332 10.9162Z" fill="white"/>
</svg>
