<svg width="22" height="23" viewBox="0 0 22 23" fill="none" xmlns="http://www.w3.org/2000/svg">
<path d="M20.1668 10.9165H4.0463L8.89821 6.06454C8.98576 5.97998 9.0556 5.87883 9.10364 5.76699C9.15168 5.65516 9.17697 5.53487 9.17803 5.41316C9.17908 5.29144 9.15589 5.17074 9.1098 5.05808C9.06371 4.94543 8.99564 4.84308 8.90957 4.75701C8.82351 4.67094 8.72116 4.60288 8.6085 4.55679C8.49585 4.5107 8.37514 4.4875 8.25343 4.48856C8.13171 4.48962 8.01143 4.51491 7.89959 4.56295C7.78776 4.61099 7.68661 4.68082 7.60205 4.76837L1.18538 11.185C1.01353 11.3569 0.916992 11.5901 0.916992 11.8331C0.916992 12.0762 1.01353 12.3093 1.18538 12.4812L7.60205 18.8979C7.77493 19.0649 8.00648 19.1572 8.24683 19.1552C8.48718 19.1531 8.71709 19.0567 8.88705 18.8867C9.057 18.7167 9.15341 18.4868 9.1555 18.2465C9.15759 18.0061 9.06519 17.7746 8.89821 17.6017L4.0463 12.7498H20.1668C20.4099 12.7498 20.6431 12.6532 20.815 12.4813C20.9869 12.3094 21.0835 12.0762 21.0835 11.8331C21.0835 11.59 20.9869 11.3569 20.815 11.1849C20.6431 11.013 20.4099 10.9165 20.1668 10.9165Z" fill="white"/>
</svg>
