<svg width="13" height="17" viewBox="0 0 13 17" fill="none" xmlns="http://www.w3.org/2000/svg">
<path d="M6.3291 16.5205C1.7666 9.95801 0.954102 9.27051 0.954102 6.83301C0.954102 3.52051 3.61035 0.833008 6.9541 0.833008C10.2666 0.833008 12.9541 3.52051 12.9541 6.83301C12.9541 9.27051 12.1104 9.95801 7.54785 16.5205C7.2666 16.958 6.61035 16.958 6.3291 16.5205ZM6.9541 9.33301C8.3291 9.33301 9.4541 8.23926 9.4541 6.83301C9.4541 5.45801 8.3291 4.33301 6.9541 4.33301C5.54785 4.33301 4.4541 5.45801 4.4541 6.83301C4.4541 8.23926 5.54785 9.33301 6.9541 9.33301Z" fill="#CCCCCC"/>
</svg>
