<svg width="20" height="21" viewBox="0 0 20 21" fill="none" xmlns="http://www.w3.org/2000/svg">
<path d="M6.49935 2.49951H13.4993C16.166 2.49951 18.3327 4.66618 18.3327 7.33285V14.3328C18.3327 15.6147 17.8235 16.8441 16.917 17.7505C16.0106 18.657 14.7812 19.1662 13.4993 19.1662H6.49935C3.83268 19.1662 1.66602 16.9995 1.66602 14.3328V7.33285C1.66602 6.05097 2.17524 4.82159 3.08167 3.91516C3.98809 3.00874 5.21747 2.49951 6.49935 2.49951ZM6.33268 4.16618C5.53703 4.16618 4.77397 4.48225 4.21136 5.04486C3.64875 5.60747 3.33268 6.37053 3.33268 7.16618V14.4995C3.33268 16.1578 4.67435 17.4995 6.33268 17.4995H13.666C14.4617 17.4995 15.2247 17.1834 15.7873 16.6208C16.3499 16.0582 16.666 15.2952 16.666 14.4995V7.16618C16.666 5.50784 15.3243 4.16618 13.666 4.16618H6.33268ZM14.3743 5.41618C14.6506 5.41618 14.9156 5.52592 15.1109 5.72128C15.3063 5.91663 15.416 6.18158 15.416 6.45784C15.416 6.73411 15.3063 6.99906 15.1109 7.19441C14.9156 7.38976 14.6506 7.49951 14.3743 7.49951C14.0981 7.49951 13.8331 7.38976 13.6378 7.19441C13.4424 6.99906 13.3327 6.73411 13.3327 6.45784C13.3327 6.18158 13.4424 5.91663 13.6378 5.72128C13.8331 5.52592 14.0981 5.41618 14.3743 5.41618ZM9.99935 6.66618C11.1044 6.66618 12.1642 7.10517 12.9456 7.88657C13.727 8.66797 14.166 9.72778 14.166 10.8328C14.166 11.9379 13.727 12.9977 12.9456 13.7791C12.1642 14.5605 11.1044 14.9995 9.99935 14.9995C8.89428 14.9995 7.83447 14.5605 7.05307 13.7791C6.27167 12.9977 5.83268 11.9379 5.83268 10.8328C5.83268 9.72778 6.27167 8.66797 7.05307 7.88657C7.83447 7.10517 8.89428 6.66618 9.99935 6.66618ZM9.99935 8.33284C9.33631 8.33284 8.70042 8.59624 8.23158 9.06508C7.76274 9.53392 7.49935 10.1698 7.49935 10.8328C7.49935 11.4959 7.76274 12.1318 8.23158 12.6006C8.70042 13.0695 9.33631 13.3328 9.99935 13.3328C10.6624 13.3328 11.2983 13.0695 11.7671 12.6006C12.236 12.1318 12.4993 11.4959 12.4993 10.8328C12.4993 10.1698 12.236 9.53392 11.7671 9.06508C11.2983 8.59624 10.6624 8.33284 9.99935 8.33284Z" fill="white"/>
</svg>
