<svg width="17" height="17" viewBox="0 0 17 17" fill="none" xmlns="http://www.w3.org/2000/svg">
<path d="M16.3604 1.11426C16.7041 1.20801 16.9541 1.48926 16.9541 1.83301C16.9541 9.86426 10.4541 16.333 2.4541 16.333C2.0791 16.333 1.79785 16.1143 1.7041 15.7705L0.954102 12.5205C0.891602 12.1768 1.04785 11.8018 1.3916 11.6455L4.8916 10.1455C5.2041 10.0205 5.54785 10.1143 5.7666 10.3643L7.3291 12.2705C9.7666 11.1143 11.7354 9.11426 12.8604 6.73926L10.9541 5.17676C10.7041 4.95801 10.6104 4.61426 10.7354 4.30176L12.2354 0.801758C12.3916 0.458008 12.7666 0.270508 13.1104 0.364258L16.3604 1.11426Z" fill="#CCCCCC"/>
</svg>
